<?xml version="1.0" encoding="utf-8"?>
<!-- Generator: Adobe Illustrator 16.0.0, SVG Export Plug-In . SVG Version: 6.00 Build 0)  -->
<!DOCTYPE svg PUBLIC "-//W3C//DTD SVG 1.1//EN" "http://www.w3.org/Graphics/SVG/1.1/DTD/svg11.dtd">
<svg version="1.1" id="Layer_1" xmlns="http://www.w3.org/2000/svg" xmlns:xlink="http://www.w3.org/1999/xlink" x="0px" y="0px"
	 width="206px" height="309px" viewBox="0 0 206 309" enable-background="new 0 0 206 309" xml:space="preserve">
<path fill="#FFFFFF" stroke="#000000" stroke-width="5" stroke-miterlimit="10" d="M203.5,295.576
	c0,6.033-4.619,10.924-10.491,10.924H13.133c-5.872,0-10.633-4.891-10.633-10.924v-193.89C2.5,95.654,7.261,90.5,13.133,90.5
	h179.876c5.872,0,10.491,5.154,10.491,11.186V295.576z"/>
<path fill="#FFFFFF" stroke="#000000" stroke-width="5" stroke-miterlimit="10" d="M203.5,77.496c0,2.211-4.619,4.004-10.491,4.004
	H13.133C7.261,81.5,2.5,79.707,2.5,77.496V6.419C2.5,4.208,7.261,2.5,13.133,2.5h179.876c5.872,0,10.491,1.708,10.491,3.919V77.496z
	"/>
<path fill="#FFFFFF" stroke="#000000" stroke-width="5" stroke-miterlimit="10" d="M24.5,272.5c0,3.313-2.687,6-6,6l0,0
	c-3.313,0-6-2.687-6-6v-142c0-3.313,2.687-6,6-6l0,0c3.313,0,6,2.687,6,6V272.5z"/>
<path fill="#FFFFFF" stroke="#000000" stroke-width="5" stroke-miterlimit="10" d="M24.5,68.5c0,3.313-2.687,6-6,6l0,0
	c-3.313,0-6-2.687-6-6v-51c0-3.313,2.687-6,6-6l0,0c3.313,0,6,2.687,6,6V68.5z"/>
</svg>
