<?xml version="1.0" encoding="utf-8"?>
<!-- Generator: Adobe Illustrator 16.0.0, SVG Export Plug-In . SVG Version: 6.00 Build 0)  -->
<!DOCTYPE svg PUBLIC "-//W3C//DTD SVG 1.1//EN" "http://www.w3.org/Graphics/SVG/1.1/DTD/svg11.dtd">
<svg version="1.1" id="Layer_1" xmlns="http://www.w3.org/2000/svg" xmlns:xlink="http://www.w3.org/1999/xlink" x="0px" y="0px"
	 width="245px" height="153px" viewBox="0 0 245 153" enable-background="new 0 0 245 153" xml:space="preserve">
<g>
	<path fill="#FFFFFF" stroke="#000000" stroke-miterlimit="10" d="M160.284,116.228c0.115,0.215,0.216,0.451,0.216,0.697v27.402
		c0,1.025-1.179,2.173-2.544,2.173h-20.383c-1.364,0-2.073-1.147-2.073-2.173v-27.402c0-0.16-0.153-0.315-0.103-0.463"/>
	<path fill="none" stroke="#000000" stroke-miterlimit="10" d="M135.103,117.155c0-10.356,5.664-18.736,12.662-18.736"/>
	<path fill="none" stroke="#000000" stroke-miterlimit="10" d="M160.314,116.416c-0.262-10.012-5.821-17.996-12.652-17.996"/>
	<circle fill="#FFFFFF" stroke="#000000" stroke-miterlimit="10" cx="143.635" cy="114.574" r="1.943"/>
	<circle fill="#FFFFFF" stroke="#000000" stroke-miterlimit="10" cx="151.999" cy="114.574" r="1.943"/>
	<circle fill="#FFFFFF" stroke="#000000" stroke-miterlimit="10" cx="143.635" cy="121.266" r="1.943"/>
	<circle fill="#FFFFFF" stroke="#000000" stroke-miterlimit="10" cx="151.999" cy="121.266" r="1.943"/>
	<circle fill="#FFFFFF" stroke="#000000" stroke-miterlimit="10" cx="143.635" cy="127.586" r="1.943"/>
	<circle fill="#FFFFFF" stroke="#000000" stroke-miterlimit="10" cx="151.999" cy="127.586" r="1.943"/>
	<circle fill="#FFFFFF" stroke="#000000" stroke-miterlimit="10" cx="143.635" cy="134.649" r="1.943"/>
	<circle fill="#FFFFFF" stroke="#000000" stroke-miterlimit="10" cx="151.999" cy="134.649" r="1.943"/>
	<line fill="none" stroke="#000000" stroke-miterlimit="10" x1="135" y1="142.5" x2="160" y2="142.5"/>
</g>
<g>
	<path fill="#FFFFFF" stroke="#000000" stroke-width="5" stroke-miterlimit="10" d="M120.5,144.729c0,3.269-2.863,5.771-6.273,5.771
		H9.752c-3.41,0-7.252-2.503-7.252-5.771V39.694c0-3.269,3.842-6.194,7.252-6.194h104.475c3.41,0,6.273,2.926,6.273,6.194V144.729z"
		/>
	<path fill="#FFFFFF" stroke="#000000" stroke-width="5" stroke-miterlimit="10" d="M119.5,21.37c0,4.517-2.881,8.13-6.73,8.13
		H9.966c-3.849,0-7.466-3.613-7.466-8.13v-1.362c0-4.516,3.617-8.508,7.466-8.508H112.77c3.849,0,6.73,3.992,6.73,8.508V21.37z"/>
	<circle fill="#FFFFFF" stroke="#000000" stroke-width="2.2536" stroke-miterlimit="10" cx="15.564" cy="20.248" r="5.229"/>
	<circle fill="#FFFFFF" stroke="#000000" stroke-width="2.2536" stroke-miterlimit="10" cx="29.464" cy="20.248" r="5.229"/>
	<circle fill="#FFFFFF" stroke="#000000" stroke-width="2.2536" stroke-miterlimit="10" cx="54.564" cy="20.248" r="5.229"/>
	<circle fill="#FFFFFF" stroke="#000000" stroke-width="2.2536" stroke-miterlimit="10" cx="68.464" cy="20.248" r="5.229"/>
	<circle fill="#FFFFFF" stroke="#000000" stroke-width="2.2536" stroke-miterlimit="10" cx="92.564" cy="20.248" r="5.229"/>
	<circle fill="#FFFFFF" stroke="#000000" stroke-width="2.2536" stroke-miterlimit="10" cx="106.464" cy="20.248" r="5.229"/>
	<path fill="#FFFFFF" stroke="#000000" stroke-width="5" stroke-miterlimit="10" d="M103.5,120.486c0,1.881-1.857,3.014-4.283,3.014
		H24.918c-2.425,0-5.418-1.133-5.418-3.014V60.039c0-1.881,2.993-3.539,5.418-3.539h74.299c2.425,0,4.283,1.658,4.283,3.539V120.486
		z"/>
	<line fill="none" stroke="#000000" stroke-width="5" stroke-miterlimit="10" x1="2" y1="141.5" x2="120" y2="141.5"/>
	<path fill="#FFFFFF" stroke="#000000" stroke-width="2" stroke-miterlimit="10" d="M102,45.622c0,0.151-1.357,1.378-3.783,1.378
		H23.918C21.493,47,18,45.772,18,45.622v-4.838C18,40.633,21.493,41,23.918,41h74.299c2.425,0,3.783-0.367,3.783-0.217V45.622z"/>
</g>
<g>
	<path fill="#FFFFFF" stroke="#000000" stroke-width="5" stroke-miterlimit="10" d="M242.5,78.212c0,2.23-2.383,3.288-5.678,3.288
		H135.888c-3.295,0-6.388-1.058-6.388-3.288V6.521c0-2.23,3.093-4.021,6.388-4.021h100.934c3.295,0,5.678,1.791,5.678,4.021V78.212z
		"/>
	<path fill="#FFFFFF" stroke="#000000" stroke-width="2" stroke-miterlimit="10" d="M236,62.734c0,1.617-1.263,4.266-4.23,4.266
		h-90.838c-2.966,0-4.931-2.649-4.931-4.266V10.809C136,9.193,137.965,9,140.931,9h90.838c2.967,0,4.23,0.193,4.23,1.809V62.734z"/>
	<circle fill="#FFFFFF" stroke="#000000" stroke-width="2.2536" stroke-miterlimit="10" cx="186.355" cy="74.111" r="5.052"/>
</g>
<g>
	<path fill="#FFFFFF" stroke="#000000" stroke-width="2" stroke-miterlimit="10" d="M243,124c0,6.627-5.373,12-12,12h-39
		c-6.627,0-12-5.373-12-12v-18c0-6.627,5.373-12,12-12h39c6.627,0,12,5.373,12,12V124z"/>
	<path fill="#FFFFFF" stroke="#000000" stroke-width="2" stroke-miterlimit="10" d="M243,143.046c0,1.631-1.323,2.954-2.954,2.954
		h-57.092c-1.631,0-2.954-1.323-2.954-2.954v-0.092c0-1.631,1.323-2.954,2.954-2.954h57.092c1.631,0,2.954,1.323,2.954,2.954
		V143.046z"/>
	<path fill="#FFFFFF" stroke="#000000" stroke-width="2" stroke-miterlimit="10" d="M238,122.9c0,5.578-4.522,10.1-10.1,10.1H195.1
		c-5.578,0-10.1-4.522-10.1-10.1v-14.8c0-5.578,4.522-10.1,10.1-10.1H227.9c5.578,0,10.1,4.522,10.1,10.1V122.9z"/>
</g>
</svg>
