<?xml version="1.0" encoding="utf-8"?>
<!-- Generator: Adobe Illustrator 16.0.0, SVG Export Plug-In . SVG Version: 6.00 Build 0)  -->
<!DOCTYPE svg PUBLIC "-//W3C//DTD SVG 1.1//EN" "http://www.w3.org/Graphics/SVG/1.1/DTD/svg11.dtd">
<svg version="1.1" id="Layer_1" xmlns="http://www.w3.org/2000/svg" xmlns:xlink="http://www.w3.org/1999/xlink" x="0px" y="0px"
	 width="378px" height="296px" viewBox="0 0 378 296" enable-background="new 0 0 378 296" xml:space="preserve">
<g>
	<path fill="#FFFFFF" stroke="#000000" stroke-width="5" stroke-miterlimit="10" d="M248.5,287.729c0,3.269-2.863,5.771-6.273,5.771
		H137.752c-3.41,0-7.252-2.503-7.252-5.771V182.694c0-3.269,3.842-6.194,7.252-6.194h104.475c3.41,0,6.273,2.926,6.273,6.194
		V287.729z"/>
	<circle fill="#FFFFFF" stroke="#000000" stroke-width="5" stroke-miterlimit="10" cx="189.913" cy="239.963" r="36.928"/>
	<path fill="#FFFFFF" stroke="#000000" stroke-width="5" stroke-miterlimit="10" d="M247.5,164.37c0,4.517-2.881,8.13-6.73,8.13
		H137.966c-3.849,0-7.466-3.613-7.466-8.13v-1.362c0-4.516,3.617-8.508,7.466-8.508H240.77c3.849,0,6.73,3.992,6.73,8.508V164.37z"
		/>
	<circle fill="#FFFFFF" stroke="#000000" stroke-width="2.2536" stroke-miterlimit="10" cx="143.564" cy="163.248" r="5.229"/>
	<circle fill="#FFFFFF" stroke="#000000" stroke-width="2.2536" stroke-miterlimit="10" cx="157.464" cy="163.248" r="5.229"/>
	<circle fill="#FFFFFF" stroke="#000000" stroke-width="5" stroke-miterlimit="10" cx="189.913" cy="239.963" r="29.542"/>
</g>
<g>
	<path fill="#FFFFFF" stroke="#000000" stroke-width="5" stroke-miterlimit="10" d="M119.5,287.301c0,3.505-2.803,6.199-6.213,6.199
		H8.812c-3.41,0-6.312-2.694-6.312-6.199V174.688c0-3.504,2.902-7.188,6.312-7.188h104.475c3.41,0,6.213,3.684,6.213,7.188V287.301z
		"/>
	<path fill="#FFFFFF" stroke="#000000" stroke-width="5" stroke-miterlimit="10" d="M119.5,160.637c0,1.285-2.803,2.863-6.213,2.863
		H8.812c-3.41,0-6.312-1.578-6.312-2.863v-41.281c0-1.285,2.902-2.855,6.312-2.855h104.475c3.41,0,6.213,1.57,6.213,2.855V160.637z"
		/>
	<path fill="#FFFFFF" stroke="#000000" stroke-width="5" stroke-miterlimit="10" d="M14.5,273.016c0,1.925-1.56,3.484-3.484,3.484
		h-0.031c-1.924,0-3.484-1.56-3.484-3.484v-82.031c0-1.924,1.56-3.484,3.484-3.484h0.031c1.924,0,3.484,1.561,3.484,3.484V273.016z"
		/>
	<path fill="#FFFFFF" stroke="#000000" stroke-width="5" stroke-miterlimit="10" d="M14.5,156.015c0,1.925-1.56,3.485-3.484,3.485
		h-0.031c-1.924,0-3.484-1.561-3.484-3.485v-30.029c0-1.925,1.56-3.485,3.484-3.485h0.031c1.924,0,3.484,1.561,3.484,3.485V156.015z
		"/>
</g>
<g>
	<path fill="#FFFFFF" stroke="#000000" stroke-width="5" stroke-miterlimit="10" d="M248.5,139.132c0,2.309-2.761,4.368-6.17,4.368
		H137.854c-3.41,0-7.354-2.06-7.354-4.368V64.926c0-2.31,3.944-4.426,7.354-4.426H242.33c3.409,0,6.17,2.116,6.17,4.426V139.132z"/>
	<line fill="none" stroke="#000000" stroke-width="5" stroke-miterlimit="10" x1="171" y1="68.5" x2="240" y2="68.5"/>
	<line fill="none" stroke="#000000" stroke-width="5" stroke-miterlimit="10" x1="171" y1="75.5" x2="240" y2="75.5"/>
	<line fill="none" stroke="#000000" stroke-width="5" stroke-miterlimit="10" x1="171" y1="82.5" x2="240" y2="82.5"/>
	<circle fill="#FFFFFF" stroke="#000000" stroke-width="2.2536" stroke-miterlimit="10" cx="141.925" cy="75.643" r="5.229"/>
	<circle fill="#FFFFFF" stroke="#000000" stroke-width="2.2536" stroke-miterlimit="10" cx="155.823" cy="75.643" r="5.229"/>
	<line fill="none" stroke="#000000" stroke-width="2" stroke-miterlimit="10" x1="136" y1="95" x2="240" y2="95"/>
	<line fill="none" stroke="#000000" stroke-width="2" stroke-miterlimit="10" x1="136" y1="102" x2="240" y2="102"/>
	<line fill="none" stroke="#000000" stroke-width="2" stroke-miterlimit="10" x1="136" y1="108" x2="240" y2="108"/>
	<line fill="none" stroke="#000000" stroke-width="2" stroke-miterlimit="10" x1="136" y1="115" x2="240" y2="115"/>
	<line fill="none" stroke="#000000" stroke-width="2" stroke-miterlimit="10" x1="136" y1="122" x2="240" y2="122"/>
	<line fill="none" stroke="#000000" stroke-width="2" stroke-miterlimit="10" x1="136" y1="128" x2="240" y2="128"/>
	<line fill="none" stroke="#000000" stroke-width="2" stroke-miterlimit="10" x1="136" y1="135" x2="240" y2="135"/>
</g>
<g>
	<path fill="#FFFFFF" stroke="#000000" stroke-width="5" stroke-miterlimit="10" d="M281.5,138.607c0,3.584,0.189,5.893-0.066,5.893
		h-7.831c-0.255,0-1.103-2.309-1.103-5.893V23.382c0-3.584,0.848-6.882,1.103-6.882h7.831c0.256,0,0.066,3.298,0.066,6.882V138.607z
		"/>
	<path fill="#FFFFFF" stroke="#000000" stroke-width="5" stroke-miterlimit="10" d="M296.5,127.854c0,3.269-0.29,5.646-0.546,5.646
		h-7.831c-0.256,0-0.623-2.377-0.623-5.646V22.82c0-3.268,0.367-6.32,0.623-6.32h7.831c0.256,0,0.546,3.053,0.546,6.32V127.854z"/>
	<path fill="#FFFFFF" stroke="#000000" stroke-width="5" stroke-miterlimit="10" d="M310.5,127.854c0,3.269,0.229,5.646-0.025,5.646
		h-7.831c-0.256,0-1.144-2.377-1.144-5.646V22.82c0-3.268,0.888-6.32,1.144-6.32h7.831c0.255,0,0.025,3.053,0.025,6.32V127.854z"/>
	<path fill="#FFFFFF" stroke="#000000" stroke-width="5" stroke-miterlimit="10" d="M323.5,127.854c0,3.269,0.59,5.646,0.334,5.646
		h-7.831c-0.256,0-0.503-2.377-0.503-5.646V22.82c0-3.268,0.247-6.32,0.503-6.32h7.831c0.256,0-0.334,3.053-0.334,6.32V127.854z"/>
	<path fill="#FFFFFF" stroke="#000000" stroke-width="5" stroke-miterlimit="10" d="M338.5,127.854c0,3.269,0.109,5.646-0.146,5.646
		h-7.83c-0.256,0-1.023-2.377-1.023-5.646V22.82c0-3.268,0.768-6.32,1.023-6.32h7.83c0.256,0,0.146,3.053,0.146,6.32V127.854z"/>
	<path fill="#FFFFFF" stroke="#000000" stroke-width="5" stroke-miterlimit="10" d="M353.5,138.607c0,3.585-0.371,5.893-0.627,5.893
		h-7.831c-0.255,0-0.542-2.308-0.542-5.893V23.382c0-3.584,0.287-6.882,0.542-6.882h7.831c0.256,0,0.627,3.298,0.627,6.882V138.607z
		"/>
	<path fill="#FFFFFF" stroke="#000000" stroke-width="5" stroke-miterlimit="10" d="M272.5,115.077c0,2.409-1.175,3.423-3.621,3.423
		h-7.168c-2.446,0-5.211-1.014-5.211-3.423v-0.18c0-2.409,2.765-4.397,5.211-4.397h7.168c2.446,0,3.621,1.988,3.621,4.397V115.077z"
		/>
	<path fill="#FFFFFF" stroke="#000000" stroke-width="5" stroke-miterlimit="10" d="M369.5,115.145c0,2.405-1.951,4.355-4.357,4.355
		h-7.285c-2.406,0-4.357-1.95-4.357-4.355v-0.289c0-2.405,1.951-4.355,4.357-4.355h7.285c2.406,0,4.357,1.95,4.357,4.355V115.145z"
		/>
</g>
<g>
	<path fill="#FFFFFF" stroke="#000000" stroke-width="5" stroke-miterlimit="10" d="M119.5,99.097c0,2.309-2.503,3.403-5.913,3.403
		H9.112c-3.411,0-6.612-1.095-6.612-3.403V24.891c0-2.309,3.201-4.391,6.612-4.391h104.475c3.41,0,5.913,2.082,5.913,4.391V99.097z"
		/>
	<path fill="#FFFFFF" stroke="#000000" stroke-width="5" stroke-miterlimit="10" d="M113.5,83.076c0,1.674-2.071,3.424-5.143,3.424
		H14.332c-3.07,0-4.832-1.751-4.832-3.424V29.329c0-1.673,1.762-2.829,4.832-2.829h94.025c3.071,0,5.143,1.156,5.143,2.829V83.076z"
		/>
	<circle fill="#FFFFFF" stroke="#000000" stroke-width="2.2536" stroke-miterlimit="10" cx="61.35" cy="94.852" r="5.229"/>
</g>
<g>
	<path fill="#FFFFFF" stroke="#000000" stroke-miterlimit="10" d="M237.284,20.228c0.115,0.215,0.216,0.451,0.216,0.697v27.402
		c0,1.025-1.179,2.173-2.544,2.173h-20.383c-1.364,0-2.073-1.147-2.073-2.173V20.925c0-0.16-0.153-0.315-0.103-0.463"/>
	<path fill="none" stroke="#000000" stroke-miterlimit="10" d="M212.103,21.155c0-10.356,5.664-18.736,12.662-18.736"/>
	<path fill="none" stroke="#000000" stroke-miterlimit="10" d="M237.314,20.416c-0.262-10.012-5.821-17.996-12.652-17.996"/>
	<circle fill="#FFFFFF" stroke="#000000" stroke-miterlimit="10" cx="220.635" cy="18.574" r="1.943"/>
	<circle fill="#FFFFFF" stroke="#000000" stroke-miterlimit="10" cx="228.999" cy="18.574" r="1.943"/>
	<circle fill="#FFFFFF" stroke="#000000" stroke-miterlimit="10" cx="220.635" cy="25.266" r="1.943"/>
	<circle fill="#FFFFFF" stroke="#000000" stroke-miterlimit="10" cx="228.999" cy="25.266" r="1.943"/>
	<circle fill="#FFFFFF" stroke="#000000" stroke-miterlimit="10" cx="220.635" cy="31.586" r="1.943"/>
	<circle fill="#FFFFFF" stroke="#000000" stroke-miterlimit="10" cx="228.999" cy="31.586" r="1.943"/>
	<circle fill="#FFFFFF" stroke="#000000" stroke-miterlimit="10" cx="220.635" cy="38.649" r="1.943"/>
	<circle fill="#FFFFFF" stroke="#000000" stroke-miterlimit="10" cx="228.999" cy="38.649" r="1.943"/>
	<line fill="none" stroke="#000000" stroke-miterlimit="10" x1="212" y1="46.5" x2="237" y2="46.5"/>
</g>
<g>
	<path fill="#FFFFFF" stroke="#000000" stroke-width="5" stroke-miterlimit="10" d="M375.5,288.729c0,3.269-2.863,5.771-6.273,5.771
		H264.752c-3.41,0-7.252-2.503-7.252-5.771V183.694c0-3.269,3.842-6.194,7.252-6.194h104.474c3.41,0,6.273,2.926,6.273,6.194
		V288.729z"/>
	<path fill="#FFFFFF" stroke="#000000" stroke-width="5" stroke-miterlimit="10" d="M374.5,165.37c0,4.517-2.881,8.13-6.73,8.13
		H264.966c-3.849,0-7.466-3.613-7.466-8.13v-1.362c0-4.516,3.617-8.508,7.466-8.508H367.77c3.85,0,6.73,3.992,6.73,8.508V165.37z"/>
	<circle fill="#FFFFFF" stroke="#000000" stroke-width="2.2536" stroke-miterlimit="10" cx="270.564" cy="164.248" r="5.229"/>
	<circle fill="#FFFFFF" stroke="#000000" stroke-width="2.2536" stroke-miterlimit="10" cx="284.464" cy="164.248" r="5.229"/>
	<circle fill="#FFFFFF" stroke="#000000" stroke-width="2.2536" stroke-miterlimit="10" cx="309.564" cy="164.248" r="5.229"/>
	<circle fill="#FFFFFF" stroke="#000000" stroke-width="2.2536" stroke-miterlimit="10" cx="323.464" cy="164.248" r="5.229"/>
	<circle fill="#FFFFFF" stroke="#000000" stroke-width="2.2536" stroke-miterlimit="10" cx="347.564" cy="164.248" r="5.229"/>
	<circle fill="#FFFFFF" stroke="#000000" stroke-width="2.2536" stroke-miterlimit="10" cx="361.464" cy="164.248" r="5.229"/>
	<path fill="#FFFFFF" stroke="#000000" stroke-width="5" stroke-miterlimit="10" d="M358.5,264.486c0,1.881-1.857,3.014-4.283,3.014
		h-74.298c-2.425,0-5.418-1.133-5.418-3.014v-60.447c0-1.881,2.993-3.539,5.418-3.539h74.298c2.426,0,4.283,1.658,4.283,3.539
		V264.486z"/>
	<line fill="none" stroke="#000000" stroke-width="5" stroke-miterlimit="10" x1="257" y1="285.5" x2="375" y2="285.5"/>
	<path fill="#FFFFFF" stroke="#000000" stroke-width="2" stroke-miterlimit="10" d="M357,189.621c0,0.151-1.357,1.379-3.783,1.379
		h-74.298c-2.425,0-5.918-1.228-5.918-1.379v-4.838c0-0.15,3.493,0.217,5.918,0.217h74.298c2.426,0,3.783-0.367,3.783-0.217V189.621
		z"/>
</g>
<g>
	<path fill="#FFFFFF" stroke="#000000" stroke-width="2" stroke-miterlimit="10" d="M195,31c0,6.627-5.373,12-12,12h-39
		c-6.627,0-12-5.373-12-12V13c0-6.627,5.373-12,12-12h39c6.627,0,12,5.373,12,12V31z"/>
	<path fill="#FFFFFF" stroke="#000000" stroke-width="2" stroke-miterlimit="10" d="M195,50.046c0,1.631-1.323,2.954-2.954,2.954
		h-57.092c-1.631,0-2.954-1.323-2.954-2.954v-0.092c0-1.631,1.323-2.954,2.954-2.954h57.092c1.631,0,2.954,1.323,2.954,2.954V50.046
		z"/>
	<path fill="#FFFFFF" stroke="#000000" stroke-width="2" stroke-miterlimit="10" d="M190,29.9c0,5.578-4.522,10.1-10.1,10.1H147.1
		c-5.578,0-10.1-4.522-10.1-10.1V15.1C137,9.522,141.522,5,147.1,5H179.9c5.578,0,10.1,4.522,10.1,10.1V29.9z"/>
</g>
</svg>
