<?xml version="1.0" encoding="utf-8"?>
<!-- Generator: Adobe Illustrator 16.0.0, SVG Export Plug-In . SVG Version: 6.00 Build 0)  -->
<!DOCTYPE svg PUBLIC "-//W3C//DTD SVG 1.1//EN" "http://www.w3.org/Graphics/SVG/1.1/DTD/svg11.dtd">
<svg version="1.1" id="Layer_1" xmlns="http://www.w3.org/2000/svg" xmlns:xlink="http://www.w3.org/1999/xlink" x="0px" y="0px"
	 width="199px" height="226px" viewBox="0 0 199 226" enable-background="new 0 0 199 226" xml:space="preserve">
<path fill="#FFFFFF" stroke="#000000" stroke-width="5" stroke-miterlimit="10" d="M45.5,211.823c0,6.173-0.28,11.677-0.721,11.677
	H31.297c-0.44,0-0.797-5.504-0.797-11.677V13.439C30.5,7.267,30.856,2.5,31.297,2.5h13.482c0.44,0,0.721,4.767,0.721,10.939V211.823
	z"/>
<path fill="#FFFFFF" stroke="#000000" stroke-width="5" stroke-miterlimit="10" d="M70.5,193.312c0,5.627-0.28,10.188-0.721,10.188
	H56.297c-0.44,0-0.797-4.562-0.797-10.188V12.472c0-5.626,0.356-9.972,0.797-9.972h13.482c0.44,0,0.721,4.346,0.721,9.972V193.312z"
	/>
<path fill="#FFFFFF" stroke="#000000" stroke-width="5" stroke-miterlimit="10" d="M95.5,193.312c0,5.627-0.28,10.188-0.721,10.188
	H81.297c-0.44,0-0.797-4.562-0.797-10.188V12.472c0-5.626,0.356-9.972,0.797-9.972h13.482c0.44,0,0.721,4.346,0.721,9.972V193.312z"
	/>
<path fill="#FFFFFF" stroke="#000000" stroke-width="5" stroke-miterlimit="10" d="M118.5,193.312c0,5.627-0.28,10.188-0.721,10.188
	h-13.482c-0.44,0-0.797-4.562-0.797-10.188V12.472c0-5.626,0.356-9.972,0.797-9.972h13.482c0.44,0,0.721,4.346,0.721,9.972V193.312z
	"/>
<path fill="#FFFFFF" stroke="#000000" stroke-width="5" stroke-miterlimit="10" d="M143.5,193.312c0,5.627-0.28,10.188-0.721,10.188
	h-13.482c-0.44,0-0.797-4.562-0.797-10.188V12.472c0-5.626,0.356-9.972,0.797-9.972h13.482c0.44,0,0.721,4.346,0.721,9.972V193.312z
	"/>
<path fill="#FFFFFF" stroke="#000000" stroke-width="5" stroke-miterlimit="10" d="M168.5,211.823c0,6.173-0.28,11.677-0.721,11.677
	h-13.482c-0.44,0-0.797-5.504-0.797-11.677V13.439c0-6.172,0.356-10.939,0.797-10.939h13.482c0.44,0,0.721,4.767,0.721,10.939
	V211.823z"/>
<path fill="#FFFFFF" stroke="#000000" stroke-width="5" stroke-miterlimit="10" d="M30.5,171c0,4.143-3.357,7.5-7.5,7.5H10
	c-4.143,0-7.5-3.357-7.5-7.5l0,0c0-4.143,3.357-7.5,7.5-7.5h13C27.143,163.5,30.5,166.857,30.5,171L30.5,171z"/>
<path fill="#FFFFFF" stroke="#000000" stroke-width="5" stroke-miterlimit="10" d="M196.5,171c0,4.143-3.357,7.5-7.5,7.5h-13
	c-4.143,0-7.5-3.357-7.5-7.5l0,0c0-4.143,3.357-7.5,7.5-7.5h13C193.143,163.5,196.5,166.857,196.5,171L196.5,171z"/>
</svg>
