<?xml version="1.0" encoding="utf-8"?>
<!-- Generator: Adobe Illustrator 16.0.0, SVG Export Plug-In . SVG Version: 6.00 Build 0)  -->
<!DOCTYPE svg PUBLIC "-//W3C//DTD SVG 1.1//EN" "http://www.w3.org/Graphics/SVG/1.1/DTD/svg11.dtd">
<svg version="1.1" id="Layer_1" xmlns="http://www.w3.org/2000/svg" xmlns:xlink="http://www.w3.org/1999/xlink" x="0px" y="0px"
	 width="272px" height="166px" viewBox="0 0 272 166" enable-background="new 0 0 272 166" xml:space="preserve">
<g>
	<path fill="#FFFFFF" stroke="#000000" stroke-width="5" stroke-miterlimit="10" d="M33.5,156.245c0,4.513,0.716,7.255,0.394,7.255
		h-9.86c-0.321,0-1.534-2.742-1.534-7.255V11.165c0-4.513,1.213-8.665,1.534-8.665h9.86c0.322,0-0.394,4.152-0.394,8.665V156.245z"
		/>
	<path fill="#FFFFFF" stroke="#000000" stroke-width="5" stroke-miterlimit="10" d="M52.5,142.706c0,4.116-0.001,6.794-0.323,6.794
		h-9.86c-0.322,0-0.816-2.678-0.816-6.794V10.458c0-4.114,0.494-7.958,0.816-7.958h9.86c0.322,0,0.323,3.844,0.323,7.958V142.706z"
		/>
	<path fill="#FFFFFF" stroke="#000000" stroke-width="5" stroke-miterlimit="10" d="M70.5,142.706c0,4.116,0.28,6.794-0.041,6.794
		h-9.86c-0.322,0-1.099-2.678-1.099-6.794V10.458c0-4.114,0.777-7.958,1.099-7.958h9.86c0.321,0,0.041,3.844,0.041,7.958V142.706z"
		/>
	<path fill="#FFFFFF" stroke="#000000" stroke-width="5" stroke-miterlimit="10" d="M86.5,142.706c0,4.116,1.102,6.794,0.78,6.794
		h-9.86c-0.322,0-0.92-2.678-0.92-6.794V10.458c0-4.114,0.598-7.958,0.92-7.958h9.86c0.322,0-0.78,3.844-0.78,7.958V142.706z"/>
	<path fill="#FFFFFF" stroke="#000000" stroke-width="5" stroke-miterlimit="10" d="M105.5,142.706c0,4.116,0.384,6.794,0.062,6.794
		h-9.859c-0.322,0-1.203-2.678-1.203-6.794V10.458c0-4.114,0.881-7.958,1.203-7.958h9.859c0.322,0-0.062,3.844-0.062,7.958V142.706z
		"/>
	<path fill="#FFFFFF" stroke="#000000" stroke-width="5" stroke-miterlimit="10" d="M124.5,156.245c0,4.514-0.334,7.255-0.657,7.255
		h-9.86c-0.321,0-0.483-2.741-0.483-7.255V11.165c0-4.513,0.162-8.665,0.483-8.665h9.86c0.322,0,0.657,4.152,0.657,8.665V156.245z"
		/>
	<path fill="#FFFFFF" stroke="#000000" stroke-width="5" stroke-miterlimit="10" d="M22.5,126.618c0,3.034-1.333,3.882-4.414,3.882
		H9.061c-3.08,0-6.561-0.848-6.561-3.882v-0.226c0-3.033,3.481-5.892,6.561-5.892h9.025c3.08,0,4.414,2.859,4.414,5.892V126.618z"/>
	<path fill="#FFFFFF" stroke="#000000" stroke-width="5" stroke-miterlimit="10" d="M144.5,126.703c0,3.028-2.179,5.797-5.208,5.797
		h-9.172c-3.03,0-5.619-2.769-5.619-5.797v-0.364c0-3.029,2.589-5.839,5.619-5.839h9.172c3.03,0,5.208,2.811,5.208,5.839V126.703z"
		/>
</g>
<g>
	<path fill="#FFFFFF" stroke="#000000" stroke-width="5" stroke-miterlimit="10" d="M269.5,113.132c0,2.309-2.761,4.368-6.17,4.368
		H158.854c-3.41,0-7.354-2.06-7.354-4.368V38.926c0-2.31,3.944-4.426,7.354-4.426H263.33c3.409,0,6.17,2.116,6.17,4.426V113.132z"/>
	<line fill="none" stroke="#000000" stroke-width="5" stroke-miterlimit="10" x1="192" y1="42.5" x2="261" y2="42.5"/>
	<line fill="none" stroke="#000000" stroke-width="5" stroke-miterlimit="10" x1="192" y1="49.5" x2="261" y2="49.5"/>
	<line fill="none" stroke="#000000" stroke-width="5" stroke-miterlimit="10" x1="192" y1="56.5" x2="261" y2="56.5"/>
	<circle fill="#FFFFFF" stroke="#000000" stroke-width="2.2536" stroke-miterlimit="10" cx="162.925" cy="49.643" r="5.229"/>
	<circle fill="#FFFFFF" stroke="#000000" stroke-width="2.2536" stroke-miterlimit="10" cx="176.823" cy="49.643" r="5.229"/>
	<line fill="none" stroke="#000000" stroke-width="2" stroke-miterlimit="10" x1="157" y1="69" x2="261" y2="69"/>
	<line fill="none" stroke="#000000" stroke-width="2" stroke-miterlimit="10" x1="157" y1="76" x2="261" y2="76"/>
	<line fill="none" stroke="#000000" stroke-width="2" stroke-miterlimit="10" x1="157" y1="82" x2="261" y2="82"/>
	<line fill="none" stroke="#000000" stroke-width="2" stroke-miterlimit="10" x1="157" y1="89" x2="261" y2="89"/>
	<line fill="none" stroke="#000000" stroke-width="2" stroke-miterlimit="10" x1="157" y1="96" x2="261" y2="96"/>
	<line fill="none" stroke="#000000" stroke-width="2" stroke-miterlimit="10" x1="157" y1="102" x2="261" y2="102"/>
	<line fill="none" stroke="#000000" stroke-width="2" stroke-miterlimit="10" x1="157" y1="109" x2="261" y2="109"/>
</g>
</svg>
