<?xml version="1.0" encoding="utf-8"?>
<!-- Generator: Adobe Illustrator 16.0.0, SVG Export Plug-In . SVG Version: 6.00 Build 0)  -->
<!DOCTYPE svg PUBLIC "-//W3C//DTD SVG 1.1//EN" "http://www.w3.org/Graphics/SVG/1.1/DTD/svg11.dtd">
<svg version="1.1" id="Layer_1" xmlns="http://www.w3.org/2000/svg" xmlns:xlink="http://www.w3.org/1999/xlink" x="0px" y="0px"
	 width="207px" height="244px" viewBox="0 0 207 244" enable-background="new 0 0 207 244" xml:space="preserve">
<path fill="#FFFFFF" stroke="#000000" stroke-width="5" stroke-miterlimit="10" d="M204.5,231.312
	c0,5.627-4.619,10.188-10.491,10.188H14.133c-5.872,0-10.633-4.562-10.633-10.188V50.472c0-5.626,4.761-9.972,10.633-9.972h179.876
	c5.872,0,10.491,4.346,10.491,9.972V231.312z"/>
<circle fill="#FFFFFF" stroke="#000000" stroke-width="5" stroke-miterlimit="10" cx="103.938" cy="149.074" r="63.581"/>
<path fill="#FFFFFF" stroke="#000000" stroke-width="5" stroke-miterlimit="10" d="M203.5,18.923c0,7.775-5.373,14.577-12,14.577
	h-177c-6.627,0-12-6.802-12-14.577v-2.346C2.5,8.802,7.873,2.5,14.5,2.5h177c6.627,0,12,6.302,12,14.077V18.923z"/>
<circle fill="#FFFFFF" stroke="#000000" stroke-width="2.2536" stroke-miterlimit="10" cx="24.139" cy="16.991" r="9.003"/>
<circle fill="#FFFFFF" stroke="#000000" stroke-width="2.2536" stroke-miterlimit="10" cx="48.07" cy="16.991" r="9.003"/>
<circle fill="#FFFFFF" stroke="#000000" stroke-width="5" stroke-miterlimit="10" cx="103.938" cy="149.074" r="50.864"/>
</svg>
